<svg width="564" height="132" viewBox="0 0 564 132" fill="none" xmlns="http://www.w3.org/2000/svg">
<rect x="1.5" y="1.5" width="33" height="33" stroke="#262626" stroke-width="3"/>
<rect x="1.5" y="49.5" width="33" height="33" stroke="#262626" stroke-width="3"/>
<rect x="1.5" y="97.5" width="33" height="33" stroke="#262626" stroke-width="3"/>
<rect x="49.5" y="1.5" width="33" height="33" stroke="#262626" stroke-width="3"/>
<rect x="49.5" y="49.5" width="33" height="33" stroke="#262626" stroke-width="3"/>
<rect x="49.5" y="97.5" width="33" height="33" stroke="#262626" stroke-width="3"/>
<rect x="97.5" y="1.5" width="33" height="33" stroke="#262626" stroke-width="3"/>
<rect x="97.5" y="49.5" width="33" height="33" stroke="#262626" stroke-width="3"/>
<rect x="97.5" y="97.5" width="33" height="33" stroke="#262626" stroke-width="3"/>
<rect x="145.5" y="1.5" width="33" height="33" stroke="#262626" stroke-width="3"/>
<rect x="145.5" y="49.5" width="33" height="33" stroke="#262626" stroke-width="3"/>
<rect x="145.5" y="97.5" width="33" height="33" stroke="#262626" stroke-width="3"/>
<rect x="193.5" y="1.5" width="33" height="33" stroke="#262626" stroke-width="3"/>
<rect x="193.5" y="49.5" width="33" height="33" stroke="#262626" stroke-width="3"/>
<rect x="193.5" y="97.5" width="33" height="33" stroke="#262626" stroke-width="3"/>
<rect x="241.5" y="1.5" width="33" height="33" stroke="#262626" stroke-width="3"/>
<rect x="241.5" y="49.5" width="33" height="33" stroke="#262626" stroke-width="3"/>
<rect x="241.5" y="97.5" width="33" height="33" stroke="#262626" stroke-width="3"/>
<rect x="289.5" y="1.5" width="33" height="33" stroke="#262626" stroke-width="3"/>
<rect x="289.5" y="49.5" width="33" height="33" stroke="#262626" stroke-width="3"/>
<rect x="289.5" y="97.5" width="33" height="33" stroke="#262626" stroke-width="3"/>
<rect x="337.5" y="1.5" width="33" height="33" stroke="#262626" stroke-width="3"/>
<rect x="337.5" y="49.5" width="33" height="33" stroke="#262626" stroke-width="3"/>
<rect x="337.5" y="97.5" width="33" height="33" stroke="#262626" stroke-width="3"/>
<rect x="385.5" y="1.5" width="33" height="33" stroke="#262626" stroke-width="3"/>
<rect x="385.5" y="49.5" width="33" height="33" stroke="#262626" stroke-width="3"/>
<rect x="385.5" y="97.5" width="33" height="33" stroke="#262626" stroke-width="3"/>
<rect x="433.5" y="1.5" width="33" height="33" stroke="#262626" stroke-width="3"/>
<rect x="433.5" y="49.5" width="33" height="33" stroke="#262626" stroke-width="3"/>
<rect x="433.5" y="97.5" width="33" height="33" stroke="#262626" stroke-width="3"/>
<rect x="481.5" y="1.5" width="33" height="33" stroke="#262626" stroke-width="3"/>
<rect x="481.5" y="49.5" width="33" height="33" stroke="#262626" stroke-width="3"/>
<rect x="481.5" y="97.5" width="33" height="33" stroke="#262626" stroke-width="3"/>
<rect x="529.5" y="1.5" width="33" height="33" stroke="#262626" stroke-width="3"/>
<rect x="529.5" y="49.5" width="33" height="33" stroke="#262626" stroke-width="3"/>
<rect x="529.5" y="97.5" width="33" height="33" stroke="#262626" stroke-width="3"/>
<path d="M12.7101 24.09C11.6061 24.09 10.6761 23.838 9.92011 23.334C9.17611 22.83 8.61211 22.104 8.22811 21.156C7.84411 20.208 7.65211 19.08 7.65211 17.772C7.65211 16.344 7.88611 15.156 8.35411 14.208C8.82211 13.248 9.47611 12.528 10.3161 12.048C11.1561 11.556 12.1341 11.31 13.2501 11.31C13.7901 11.31 14.3061 11.358 14.7981 11.454C15.2901 11.55 15.7281 11.718 16.1121 11.958L15.7341 12.696C15.4101 12.492 15.0321 12.348 14.6001 12.264C14.1801 12.168 13.7301 12.12 13.2501 12.12C11.8341 12.12 10.7001 12.582 9.84811 13.506C8.99611 14.418 8.57011 15.792 8.57011 17.628C8.57011 17.904 8.58811 18.258 8.62411 18.69C8.66011 19.11 8.73811 19.524 8.85811 19.932L8.53411 19.842C8.61811 19.146 8.85211 18.552 9.23611 18.06C9.62011 17.568 10.1121 17.196 10.7121 16.944C11.3121 16.68 11.9721 16.548 12.6921 16.548C13.5321 16.548 14.2641 16.704 14.8881 17.016C15.5241 17.316 16.0161 17.748 16.3641 18.312C16.7241 18.876 16.9041 19.536 16.9041 20.292C16.9041 21.06 16.7181 21.732 16.3461 22.308C15.9861 22.872 15.4881 23.31 14.8521 23.622C14.2281 23.934 13.5141 24.09 12.7101 24.09ZM12.6741 23.298C13.3341 23.298 13.9101 23.178 14.4021 22.938C14.8941 22.686 15.2781 22.338 15.5541 21.894C15.8421 21.438 15.9861 20.91 15.9861 20.31C15.9861 19.41 15.6801 18.69 15.0681 18.15C14.4681 17.61 13.6341 17.34 12.5661 17.34C11.8821 17.34 11.2761 17.472 10.7481 17.736C10.2201 18 9.80611 18.36 9.50611 18.816C9.21811 19.272 9.07411 19.782 9.07411 20.346C9.07411 20.838 9.21211 21.312 9.48811 21.768C9.76411 22.212 10.1661 22.578 10.6941 22.866C11.2341 23.154 11.8941 23.298 12.6741 23.298ZM23.4122 24.09C22.4522 24.09 21.6002 23.832 20.8562 23.316C20.1122 22.8 19.5302 22.068 19.1102 21.12C18.6902 20.16 18.4802 19.02 18.4802 17.7C18.4802 16.38 18.6902 15.246 19.1102 14.298C19.5302 13.338 20.1122 12.6 20.8562 12.084C21.6002 11.568 22.4522 11.31 23.4122 11.31C24.3842 11.31 25.2362 11.568 25.9682 12.084C26.7122 12.6 27.2942 13.338 27.7142 14.298C28.1342 15.246 28.3442 16.38 28.3442 17.7C28.3442 19.02 28.1342 20.16 27.7142 21.12C27.2942 22.068 26.7122 22.8 25.9682 23.316C25.2362 23.832 24.3842 24.09 23.4122 24.09ZM23.4122 23.244C24.2162 23.244 24.9182 23.028 25.5182 22.596C26.1182 22.152 26.5862 21.516 26.9222 20.688C27.2582 19.86 27.4262 18.864 27.4262 17.7C27.4262 16.524 27.2582 15.528 26.9222 14.712C26.5862 13.884 26.1182 13.254 25.5182 12.822C24.9182 12.378 24.2162 12.156 23.4122 12.156C22.6202 12.156 21.9182 12.378 21.3062 12.822C20.7062 13.254 20.2382 13.884 19.9022 14.712C19.5662 15.528 19.3982 16.524 19.3982 17.7C19.3982 18.864 19.5662 19.86 19.9022 20.688C20.2382 21.516 20.7062 22.152 21.3062 22.596C21.9182 23.028 22.6202 23.244 23.4122 23.244Z" fill="#8EA300"/>
<path d="M13.5626 72.09C12.4586 72.09 11.5286 71.838 10.7726 71.334C10.0286 70.83 9.46465 70.104 9.08065 69.156C8.69665 68.208 8.50465 67.08 8.50465 65.772C8.50465 64.344 8.73865 63.156 9.20665 62.208C9.67465 61.248 10.3286 60.528 11.1686 60.048C12.0086 59.556 12.9866 59.31 14.1026 59.31C14.6426 59.31 15.1586 59.358 15.6506 59.454C16.1426 59.55 16.5806 59.718 16.9646 59.958L16.5866 60.696C16.2626 60.492 15.8846 60.348 15.4526 60.264C15.0326 60.168 14.5826 60.12 14.1026 60.12C12.6866 60.12 11.5526 60.582 10.7006 61.506C9.84865 62.418 9.42265 63.792 9.42265 65.628C9.42265 65.904 9.44065 66.258 9.47665 66.69C9.51265 67.11 9.59065 67.524 9.71065 67.932L9.38665 67.842C9.47065 67.146 9.70465 66.552 10.0886 66.06C10.4726 65.568 10.9646 65.196 11.5646 64.944C12.1646 64.68 12.8246 64.548 13.5446 64.548C14.3846 64.548 15.1166 64.704 15.7406 65.016C16.3766 65.316 16.8686 65.748 17.2166 66.312C17.5766 66.876 17.7566 67.536 17.7566 68.292C17.7566 69.06 17.5706 69.732 17.1986 70.308C16.8386 70.872 16.3406 71.31 15.7046 71.622C15.0806 71.934 14.3666 72.09 13.5626 72.09ZM13.5266 71.298C14.1866 71.298 14.7626 71.178 15.2546 70.938C15.7466 70.686 16.1306 70.338 16.4066 69.894C16.6946 69.438 16.8386 68.91 16.8386 68.31C16.8386 67.41 16.5326 66.69 15.9206 66.15C15.3206 65.61 14.4866 65.34 13.4186 65.34C12.7346 65.34 12.1286 65.472 11.6006 65.736C11.0726 66 10.6586 66.36 10.3586 66.816C10.0706 67.272 9.92665 67.782 9.92665 68.346C9.92665 68.838 10.0646 69.312 10.3406 69.768C10.6166 70.212 11.0186 70.578 11.5466 70.866C12.0866 71.154 12.7466 71.298 13.5266 71.298ZM19.0808 72V71.352L24.4088 66.06C24.9128 65.556 25.2908 65.118 25.5428 64.746C25.7948 64.362 25.9628 64.008 26.0468 63.684C26.1428 63.36 26.1908 63.042 26.1908 62.73C26.1908 61.938 25.9208 61.314 25.3808 60.858C24.8408 60.39 24.0488 60.156 23.0048 60.156C22.2128 60.156 21.5168 60.276 20.9168 60.516C20.3288 60.756 19.8188 61.122 19.3868 61.614L18.7388 61.038C19.2188 60.486 19.8248 60.06 20.5568 59.76C21.3008 59.46 22.1408 59.31 23.0768 59.31C23.9048 59.31 24.6188 59.448 25.2188 59.724C25.8308 59.988 26.2988 60.372 26.6228 60.876C26.9588 61.368 27.1268 61.956 27.1268 62.64C27.1268 63.048 27.0668 63.45 26.9468 63.846C26.8388 64.23 26.6348 64.638 26.3348 65.07C26.0468 65.502 25.6268 65.994 25.0748 66.546L20.0708 71.532L19.7648 71.172H27.7388V72H19.0808Z" fill="#8EA300"/>
<path d="M60.8478 24.09C59.8878 24.09 59.0358 23.832 58.2918 23.316C57.5478 22.8 56.9658 22.068 56.5458 21.12C56.1258 20.16 55.9158 19.02 55.9158 17.7C55.9158 16.38 56.1258 15.246 56.5458 14.298C56.9658 13.338 57.5478 12.6 58.2918 12.084C59.0358 11.568 59.8878 11.31 60.8478 11.31C61.8198 11.31 62.6718 11.568 63.4038 12.084C64.1478 12.6 64.7298 13.338 65.1498 14.298C65.5698 15.246 65.7798 16.38 65.7798 17.7C65.7798 19.02 65.5698 20.16 65.1498 21.12C64.7298 22.068 64.1478 22.8 63.4038 23.316C62.6718 23.832 61.8198 24.09 60.8478 24.09ZM60.8478 23.244C61.6518 23.244 62.3538 23.028 62.9538 22.596C63.5538 22.152 64.0218 21.516 64.3578 20.688C64.6938 19.86 64.8618 18.864 64.8618 17.7C64.8618 16.524 64.6938 15.528 64.3578 14.712C64.0218 13.884 63.5538 13.254 62.9538 12.822C62.3538 12.378 61.6518 12.156 60.8478 12.156C60.0558 12.156 59.3538 12.378 58.7418 12.822C58.1418 13.254 57.6738 13.884 57.3378 14.712C57.0018 15.528 56.8338 16.524 56.8338 17.7C56.8338 18.864 57.0018 19.86 57.3378 20.688C57.6738 21.516 58.1418 22.152 58.7418 22.596C59.3538 23.028 60.0558 23.244 60.8478 23.244ZM69.8372 24L75.3812 11.832L75.7052 12.228H67.6592L68.1272 11.796V14.64H67.2272V11.4H76.2632V12.048L70.8452 24H69.8372Z" fill="#8EA300"/>
<path d="M55.5504 68.508V67.842L62.3904 59.4H63.4164L56.5944 67.842L56.0904 67.698H66.2784V68.508H55.5504ZM62.7324 72V68.508L62.7504 67.698V64.62H63.6324V72H62.7324ZM71.1835 59.31C72.2875 59.31 73.2115 59.562 73.9555 60.066C74.7115 60.57 75.2815 61.296 75.6655 62.244C76.0495 63.18 76.2415 64.308 76.2415 65.628C76.2415 67.044 76.0075 68.232 75.5395 69.192C75.0715 70.152 74.4175 70.878 73.5775 71.37C72.7375 71.85 71.7595 72.09 70.6435 72.09C70.1035 72.09 69.5875 72.042 69.0955 71.946C68.6155 71.85 68.1775 71.682 67.7815 71.442L68.1595 70.704C68.4835 70.908 68.8615 71.058 69.2935 71.154C69.7255 71.238 70.1755 71.28 70.6435 71.28C72.0595 71.28 73.1935 70.824 74.0455 69.912C74.8975 68.988 75.3235 67.608 75.3235 65.772C75.3235 65.484 75.3055 65.13 75.2695 64.71C75.2335 64.29 75.1555 63.876 75.0355 63.468L75.3595 63.558C75.2755 64.254 75.0415 64.848 74.6575 65.34C74.2735 65.82 73.7815 66.192 73.1815 66.456C72.5935 66.72 71.9335 66.852 71.2015 66.852C70.3615 66.852 69.6235 66.702 68.9875 66.402C68.3635 66.09 67.8715 65.652 67.5115 65.088C67.1635 64.524 66.9895 63.864 66.9895 63.108C66.9895 62.34 67.1695 61.674 67.5295 61.11C67.9015 60.534 68.3995 60.09 69.0235 59.778C69.6595 59.466 70.3795 59.31 71.1835 59.31ZM71.2195 60.102C70.5595 60.102 69.9835 60.228 69.4915 60.48C68.9995 60.72 68.6095 61.062 68.3215 61.506C68.0455 61.95 67.9075 62.478 67.9075 63.09C67.9075 63.99 68.2135 64.71 68.8255 65.25C69.4375 65.79 70.2715 66.06 71.3275 66.06C72.0115 66.06 72.6175 65.928 73.1455 65.664C73.6735 65.4 74.0815 65.04 74.3695 64.584C74.6695 64.128 74.8195 63.618 74.8195 63.054C74.8195 62.562 74.6815 62.094 74.4055 61.65C74.1295 61.194 73.7275 60.822 73.1995 60.534C72.6715 60.246 72.0115 60.102 71.2195 60.102Z" fill="#8EA300"/>
<path d="M108.209 24.09C107.105 24.09 106.175 23.838 105.419 23.334C104.675 22.83 104.111 22.104 103.727 21.156C103.343 20.208 103.151 19.08 103.151 17.772C103.151 16.344 103.385 15.156 103.853 14.208C104.321 13.248 104.975 12.528 105.815 12.048C106.655 11.556 107.633 11.31 108.749 11.31C109.289 11.31 109.805 11.358 110.297 11.454C110.789 11.55 111.227 11.718 111.611 11.958L111.233 12.696C110.909 12.492 110.531 12.348 110.099 12.264C109.679 12.168 109.229 12.12 108.749 12.12C107.333 12.12 106.199 12.582 105.347 13.506C104.495 14.418 104.069 15.792 104.069 17.628C104.069 17.904 104.087 18.258 104.123 18.69C104.159 19.11 104.237 19.524 104.357 19.932L104.033 19.842C104.117 19.146 104.351 18.552 104.735 18.06C105.119 17.568 105.611 17.196 106.211 16.944C106.811 16.68 107.471 16.548 108.191 16.548C109.031 16.548 109.763 16.704 110.387 17.016C111.023 17.316 111.515 17.748 111.863 18.312C112.223 18.876 112.403 19.536 112.403 20.292C112.403 21.06 112.217 21.732 111.845 22.308C111.485 22.872 110.987 23.31 110.351 23.622C109.727 23.934 109.013 24.09 108.209 24.09ZM108.173 23.298C108.833 23.298 109.409 23.178 109.901 22.938C110.393 22.686 110.777 22.338 111.053 21.894C111.341 21.438 111.485 20.91 111.485 20.31C111.485 19.41 111.179 18.69 110.567 18.15C109.967 17.61 109.133 17.34 108.065 17.34C107.381 17.34 106.775 17.472 106.247 17.736C105.719 18 105.305 18.36 105.005 18.816C104.717 19.272 104.573 19.782 104.573 20.346C104.573 20.838 104.711 21.312 104.987 21.768C105.263 22.212 105.665 22.578 106.193 22.866C106.733 23.154 107.393 23.298 108.173 23.298ZM113.237 24L119.033 11.4H119.951L125.747 24H124.757L119.285 11.976H119.681L114.227 24H113.237ZM115.361 20.454L115.667 19.68H123.209L123.515 20.454H115.361Z" fill="#8EA300"/>
<path d="M108.584 72.09C107.624 72.09 106.772 71.832 106.028 71.316C105.284 70.8 104.702 70.068 104.282 69.12C103.862 68.16 103.652 67.02 103.652 65.7C103.652 64.38 103.862 63.246 104.282 62.298C104.702 61.338 105.284 60.6 106.028 60.084C106.772 59.568 107.624 59.31 108.584 59.31C109.556 59.31 110.408 59.568 111.14 60.084C111.884 60.6 112.466 61.338 112.886 62.298C113.306 63.246 113.516 64.38 113.516 65.7C113.516 67.02 113.306 68.16 112.886 69.12C112.466 70.068 111.884 70.8 111.14 71.316C110.408 71.832 109.556 72.09 108.584 72.09ZM108.584 71.244C109.388 71.244 110.09 71.028 110.69 70.596C111.29 70.152 111.758 69.516 112.094 68.688C112.43 67.86 112.598 66.864 112.598 65.7C112.598 64.524 112.43 63.528 112.094 62.712C111.758 61.884 111.29 61.254 110.69 60.822C110.09 60.378 109.388 60.156 108.584 60.156C107.792 60.156 107.09 60.378 106.478 60.822C105.878 61.254 105.41 61.884 105.074 62.712C104.738 63.528 104.57 64.524 104.57 65.7C104.57 66.864 104.738 67.86 105.074 68.688C105.41 69.516 105.878 70.152 106.478 70.596C107.09 71.028 107.792 71.244 108.584 71.244ZM120.558 72.09C119.454 72.09 118.524 71.838 117.768 71.334C117.024 70.83 116.46 70.104 116.076 69.156C115.692 68.208 115.5 67.08 115.5 65.772C115.5 64.344 115.734 63.156 116.202 62.208C116.67 61.248 117.324 60.528 118.164 60.048C119.004 59.556 119.982 59.31 121.098 59.31C121.638 59.31 122.154 59.358 122.646 59.454C123.138 59.55 123.576 59.718 123.96 59.958L123.582 60.696C123.258 60.492 122.88 60.348 122.448 60.264C122.028 60.168 121.578 60.12 121.098 60.12C119.682 60.12 118.548 60.582 117.696 61.506C116.844 62.418 116.418 63.792 116.418 65.628C116.418 65.904 116.436 66.258 116.472 66.69C116.508 67.11 116.586 67.524 116.706 67.932L116.382 67.842C116.466 67.146 116.7 66.552 117.084 66.06C117.468 65.568 117.96 65.196 118.56 64.944C119.16 64.68 119.82 64.548 120.54 64.548C121.38 64.548 122.112 64.704 122.736 65.016C123.372 65.316 123.864 65.748 124.212 66.312C124.572 66.876 124.752 67.536 124.752 68.292C124.752 69.06 124.566 69.732 124.194 70.308C123.834 70.872 123.336 71.31 122.7 71.622C122.076 71.934 121.362 72.09 120.558 72.09ZM120.522 71.298C121.182 71.298 121.758 71.178 122.25 70.938C122.742 70.686 123.126 70.338 123.402 69.894C123.69 69.438 123.834 68.91 123.834 68.31C123.834 67.41 123.528 66.69 122.916 66.15C122.316 65.61 121.482 65.34 120.414 65.34C119.73 65.34 119.124 65.472 118.596 65.736C118.068 66 117.654 66.36 117.354 66.816C117.066 67.272 116.922 67.782 116.922 68.346C116.922 68.838 117.06 69.312 117.336 69.768C117.612 70.212 118.014 70.578 118.542 70.866C119.082 71.154 119.742 71.298 120.522 71.298Z" fill="#8EA300"/>
<path d="M158.421 11.31C159.525 11.31 160.449 11.562 161.193 12.066C161.949 12.57 162.519 13.296 162.903 14.244C163.287 15.18 163.479 16.308 163.479 17.628C163.479 19.044 163.245 20.232 162.777 21.192C162.309 22.152 161.655 22.878 160.815 23.37C159.975 23.85 158.997 24.09 157.881 24.09C157.341 24.09 156.825 24.042 156.333 23.946C155.853 23.85 155.415 23.682 155.019 23.442L155.397 22.704C155.721 22.908 156.099 23.058 156.531 23.154C156.963 23.238 157.413 23.28 157.881 23.28C159.297 23.28 160.431 22.824 161.283 21.912C162.135 20.988 162.561 19.608 162.561 17.772C162.561 17.484 162.543 17.13 162.507 16.71C162.471 16.29 162.393 15.876 162.273 15.468L162.597 15.558C162.513 16.254 162.279 16.848 161.895 17.34C161.511 17.82 161.019 18.192 160.419 18.456C159.831 18.72 159.171 18.852 158.439 18.852C157.599 18.852 156.861 18.702 156.225 18.402C155.601 18.09 155.109 17.652 154.749 17.088C154.401 16.524 154.227 15.864 154.227 15.108C154.227 14.34 154.407 13.674 154.767 13.11C155.139 12.534 155.637 12.09 156.261 11.778C156.897 11.466 157.617 11.31 158.421 11.31ZM158.457 12.102C157.797 12.102 157.221 12.228 156.729 12.48C156.237 12.72 155.847 13.062 155.559 13.506C155.283 13.95 155.145 14.478 155.145 15.09C155.145 15.99 155.451 16.71 156.063 17.25C156.675 17.79 157.509 18.06 158.565 18.06C159.249 18.06 159.855 17.928 160.383 17.664C160.911 17.4 161.319 17.04 161.607 16.584C161.907 16.128 162.057 15.618 162.057 15.054C162.057 14.562 161.919 14.094 161.643 13.65C161.367 13.194 160.965 12.822 160.437 12.534C159.909 12.246 159.249 12.102 158.457 12.102ZM166.549 24V13.164C166.549 12.384 166.771 11.76 167.215 11.292C167.671 10.812 168.319 10.572 169.159 10.572C169.507 10.572 169.849 10.626 170.185 10.734C170.521 10.83 170.797 10.98 171.013 11.184L170.653 11.868C170.473 11.688 170.257 11.556 170.005 11.472C169.753 11.388 169.483 11.346 169.195 11.346C168.619 11.346 168.181 11.508 167.881 11.832C167.581 12.144 167.431 12.612 167.431 13.236V14.82L167.449 15.252V24H166.549ZM164.821 15.378V14.604H170.437V15.378H164.821Z" fill="#8EA300"/>
<path d="M157.501 72.09C156.565 72.09 155.695 71.934 154.891 71.622C154.099 71.298 153.409 70.848 152.821 70.272C152.233 69.696 151.777 69.024 151.453 68.256C151.129 67.476 150.967 66.624 150.967 65.7C150.967 64.776 151.129 63.93 151.453 63.162C151.777 62.382 152.233 61.704 152.821 61.128C153.421 60.552 154.117 60.108 154.909 59.796C155.701 59.472 156.565 59.31 157.501 59.31C158.389 59.31 159.217 59.454 159.985 59.742C160.765 60.03 161.431 60.468 161.983 61.056L161.407 61.65C160.867 61.122 160.267 60.744 159.607 60.516C158.959 60.276 158.269 60.156 157.537 60.156C156.733 60.156 155.983 60.294 155.287 60.57C154.603 60.846 154.003 61.236 153.487 61.74C152.983 62.244 152.587 62.832 152.299 63.504C152.023 64.176 151.885 64.908 151.885 65.7C151.885 66.492 152.023 67.224 152.299 67.896C152.587 68.568 152.983 69.156 153.487 69.66C154.003 70.164 154.603 70.554 155.287 70.83C155.983 71.106 156.733 71.244 157.537 71.244C158.269 71.244 158.959 71.13 159.607 70.902C160.267 70.662 160.867 70.272 161.407 69.732L161.983 70.326C161.431 70.914 160.765 71.358 159.985 71.658C159.217 71.946 158.389 72.09 157.501 72.09ZM163.02 68.508V67.842L169.86 59.4H170.886L164.064 67.842L163.56 67.698H173.748V68.508H163.02ZM170.202 72V68.508L170.22 67.698V64.62H171.102V72H170.202Z" fill="#8EA300"/>
<path d="M203.989 24.09C203.077 24.09 202.219 23.934 201.415 23.622C200.623 23.31 200.005 22.902 199.561 22.398L200.029 21.696C200.413 22.14 200.953 22.512 201.649 22.812C202.345 23.1 203.119 23.244 203.971 23.244C205.135 23.244 206.011 22.98 206.599 22.452C207.187 21.924 207.481 21.24 207.481 20.4C207.481 19.8 207.343 19.284 207.067 18.852C206.791 18.42 206.323 18.09 205.663 17.862C205.003 17.622 204.103 17.502 202.963 17.502H200.407L201.073 11.4H207.751V12.228H201.451L201.901 11.796L201.307 17.142L200.875 16.674H203.161C204.445 16.674 205.465 16.83 206.221 17.142C206.989 17.442 207.541 17.868 207.877 18.42C208.225 18.972 208.399 19.62 208.399 20.364C208.399 21.06 208.237 21.69 207.913 22.254C207.589 22.818 207.097 23.268 206.437 23.604C205.789 23.928 204.973 24.09 203.989 24.09ZM209.904 20.508V19.842L216.744 11.4H217.77L210.948 19.842L210.444 19.698H220.632V20.508H209.904ZM217.086 24V20.508L217.104 19.698V16.62H217.986V24H217.086Z" fill="#8EA300"/>
<path d="M247.769 24V23.352L253.097 18.06C253.601 17.556 253.979 17.118 254.231 16.746C254.483 16.362 254.651 16.008 254.735 15.684C254.831 15.36 254.879 15.042 254.879 14.73C254.879 13.938 254.609 13.314 254.069 12.858C253.529 12.39 252.737 12.156 251.693 12.156C250.901 12.156 250.205 12.276 249.605 12.516C249.017 12.756 248.507 13.122 248.075 13.614L247.427 13.038C247.907 12.486 248.513 12.06 249.245 11.76C249.989 11.46 250.829 11.31 251.765 11.31C252.593 11.31 253.307 11.448 253.907 11.724C254.519 11.988 254.987 12.372 255.311 12.876C255.647 13.368 255.815 13.956 255.815 14.64C255.815 15.048 255.755 15.45 255.635 15.846C255.527 16.23 255.323 16.638 255.023 17.07C254.735 17.502 254.315 17.994 253.763 18.546L248.759 23.532L248.453 23.172H256.427V24H247.769ZM263.043 24.09C262.083 24.09 261.231 23.832 260.487 23.316C259.743 22.8 259.161 22.068 258.741 21.12C258.321 20.16 258.111 19.02 258.111 17.7C258.111 16.38 258.321 15.246 258.741 14.298C259.161 13.338 259.743 12.6 260.487 12.084C261.231 11.568 262.083 11.31 263.043 11.31C264.015 11.31 264.867 11.568 265.599 12.084C266.343 12.6 266.925 13.338 267.345 14.298C267.765 15.246 267.975 16.38 267.975 17.7C267.975 19.02 267.765 20.16 267.345 21.12C266.925 22.068 266.343 22.8 265.599 23.316C264.867 23.832 264.015 24.09 263.043 24.09ZM263.043 23.244C263.847 23.244 264.549 23.028 265.149 22.596C265.749 22.152 266.217 21.516 266.553 20.688C266.889 19.86 267.057 18.864 267.057 17.7C267.057 16.524 266.889 15.528 266.553 14.712C266.217 13.884 265.749 13.254 265.149 12.822C264.549 12.378 263.847 12.156 263.043 12.156C262.251 12.156 261.549 12.378 260.937 12.822C260.337 13.254 259.869 13.884 259.533 14.712C259.197 15.528 259.029 16.524 259.029 17.7C259.029 18.864 259.197 19.86 259.533 20.688C259.869 21.516 260.337 22.152 260.937 22.596C261.549 23.028 262.251 23.244 263.043 23.244Z" fill="#8EA300"/>
<path d="M299.231 24.09C298.271 24.09 297.419 23.832 296.675 23.316C295.931 22.8 295.349 22.068 294.929 21.12C294.509 20.16 294.299 19.02 294.299 17.7C294.299 16.38 294.509 15.246 294.929 14.298C295.349 13.338 295.931 12.6 296.675 12.084C297.419 11.568 298.271 11.31 299.231 11.31C300.203 11.31 301.055 11.568 301.787 12.084C302.531 12.6 303.113 13.338 303.533 14.298C303.953 15.246 304.163 16.38 304.163 17.7C304.163 19.02 303.953 20.16 303.533 21.12C303.113 22.068 302.531 22.8 301.787 23.316C301.055 23.832 300.203 24.09 299.231 24.09ZM299.231 23.244C300.035 23.244 300.737 23.028 301.337 22.596C301.937 22.152 302.405 21.516 302.741 20.688C303.077 19.86 303.245 18.864 303.245 17.7C303.245 16.524 303.077 15.528 302.741 14.712C302.405 13.884 301.937 13.254 301.337 12.822C300.737 12.378 300.035 12.156 299.231 12.156C298.439 12.156 297.737 12.378 297.125 12.822C296.525 13.254 296.057 13.884 295.721 14.712C295.385 15.528 295.217 16.524 295.217 17.7C295.217 18.864 295.385 19.86 295.721 20.688C296.057 21.516 296.525 22.152 297.125 22.596C297.737 23.028 298.439 23.244 299.231 23.244ZM307.352 24V11.4H312.608C313.964 11.4 315.026 11.676 315.794 12.228C316.562 12.78 316.946 13.578 316.946 14.622C316.946 15.306 316.784 15.882 316.46 16.35C316.136 16.818 315.686 17.172 315.11 17.412C314.546 17.64 313.91 17.754 313.202 17.754L313.526 17.394C314.39 17.394 315.128 17.52 315.74 17.772C316.352 18.024 316.814 18.39 317.126 18.87C317.45 19.35 317.612 19.95 317.612 20.67C317.612 21.726 317.228 22.548 316.46 23.136C315.692 23.712 314.528 24 312.968 24H307.352ZM308.27 23.208H312.968C314.18 23.208 315.104 23.004 315.74 22.596C316.376 22.176 316.694 21.51 316.694 20.598C316.694 19.698 316.376 19.044 315.74 18.636C315.104 18.216 314.18 18.006 312.968 18.006H308.162V17.214H312.572C313.664 17.214 314.51 17.004 315.11 16.584C315.71 16.164 316.01 15.534 316.01 14.694C316.01 13.866 315.71 13.242 315.11 12.822C314.51 12.402 313.664 12.192 312.572 12.192H308.27V23.208Z" fill="#8EA300"/>
<path d="M348.956 24.09C347.852 24.09 346.922 23.838 346.166 23.334C345.422 22.83 344.858 22.104 344.474 21.156C344.09 20.208 343.898 19.08 343.898 17.772C343.898 16.344 344.132 15.156 344.6 14.208C345.068 13.248 345.722 12.528 346.562 12.048C347.402 11.556 348.38 11.31 349.496 11.31C350.036 11.31 350.552 11.358 351.044 11.454C351.536 11.55 351.974 11.718 352.358 11.958L351.98 12.696C351.656 12.492 351.278 12.348 350.846 12.264C350.426 12.168 349.976 12.12 349.496 12.12C348.08 12.12 346.946 12.582 346.094 13.506C345.242 14.418 344.816 15.792 344.816 17.628C344.816 17.904 344.834 18.258 344.87 18.69C344.906 19.11 344.984 19.524 345.104 19.932L344.78 19.842C344.864 19.146 345.098 18.552 345.482 18.06C345.866 17.568 346.358 17.196 346.958 16.944C347.558 16.68 348.218 16.548 348.938 16.548C349.778 16.548 350.51 16.704 351.134 17.016C351.77 17.316 352.262 17.748 352.61 18.312C352.97 18.876 353.15 19.536 353.15 20.292C353.15 21.06 352.964 21.732 352.592 22.308C352.232 22.872 351.734 23.31 351.098 23.622C350.474 23.934 349.76 24.09 348.956 24.09ZM348.92 23.298C349.58 23.298 350.156 23.178 350.648 22.938C351.14 22.686 351.524 22.338 351.8 21.894C352.088 21.438 352.232 20.91 352.232 20.31C352.232 19.41 351.926 18.69 351.314 18.15C350.714 17.61 349.88 17.34 348.812 17.34C348.128 17.34 347.522 17.472 346.994 17.736C346.466 18 346.052 18.36 345.752 18.816C345.464 19.272 345.32 19.782 345.32 20.346C345.32 20.838 345.458 21.312 345.734 21.768C346.01 22.212 346.412 22.578 346.94 22.866C347.48 23.154 348.14 23.298 348.92 23.298ZM356.742 17.61H363.564V18.438H356.742V17.61ZM356.85 24H355.932V11.4H364.356V12.228H356.85V24Z" fill="#8EA300"/>
<path d="M392.122 20.508V19.842L398.962 11.4H399.988L393.166 19.842L392.662 19.698H402.85V20.508H392.122ZM399.304 24V20.508L399.322 19.698V16.62H400.204V24H399.304ZM405.415 24L410.959 11.832L411.283 12.228H403.237L403.705 11.796V14.64H402.805V11.4H411.841V12.048L406.423 24H405.415Z" fill="#8EA300"/>
<path d="M442.473 24L448.017 11.832L448.341 12.228H440.295L440.763 11.796V14.64H439.863V11.4H448.899V12.048L443.481 24H442.473ZM455.046 24.09C454.05 24.09 453.198 23.946 452.49 23.658C451.782 23.37 451.236 22.962 450.852 22.434C450.48 21.906 450.294 21.276 450.294 20.544C450.294 19.836 450.48 19.23 450.852 18.726C451.224 18.222 451.764 17.838 452.472 17.574C453.18 17.298 454.038 17.16 455.046 17.16C456.054 17.16 456.912 17.298 457.62 17.574C458.34 17.838 458.886 18.222 459.258 18.726C459.642 19.23 459.834 19.836 459.834 20.544C459.834 21.276 459.642 21.906 459.258 22.434C458.874 22.962 458.322 23.37 457.602 23.658C456.894 23.946 456.042 24.09 455.046 24.09ZM455.046 23.298C456.258 23.298 457.206 23.052 457.89 22.56C458.574 22.068 458.916 21.396 458.916 20.544C458.916 19.704 458.574 19.038 457.89 18.546C457.206 18.054 456.258 17.808 455.046 17.808C453.834 17.808 452.892 18.054 452.22 18.546C451.548 19.038 451.212 19.704 451.212 20.544C451.212 21.396 451.548 22.068 452.22 22.56C452.892 23.052 453.834 23.298 455.046 23.298ZM455.046 17.682C454.134 17.682 453.354 17.562 452.706 17.322C452.07 17.07 451.584 16.71 451.248 16.242C450.912 15.774 450.744 15.216 450.744 14.568C450.744 13.896 450.918 13.32 451.266 12.84C451.626 12.348 452.13 11.97 452.778 11.706C453.426 11.442 454.182 11.31 455.046 11.31C455.922 11.31 456.684 11.442 457.332 11.706C457.98 11.97 458.484 12.348 458.844 12.84C459.204 13.32 459.384 13.896 459.384 14.568C459.384 15.216 459.21 15.774 458.862 16.242C458.526 16.71 458.034 17.07 457.386 17.322C456.738 17.562 455.958 17.682 455.046 17.682ZM455.046 17.052C456.126 17.052 456.966 16.83 457.566 16.386C458.166 15.942 458.466 15.348 458.466 14.604C458.466 13.824 458.154 13.212 457.53 12.768C456.918 12.324 456.09 12.102 455.046 12.102C454.014 12.102 453.192 12.324 452.58 12.768C451.968 13.212 451.662 13.818 451.662 14.586C451.662 15.342 451.956 15.942 452.544 16.386C453.144 16.83 453.978 17.052 455.046 17.052Z" fill="#8EA300"/>
<path d="M492.848 24.09C491.888 24.09 491.036 23.832 490.292 23.316C489.548 22.8 488.966 22.068 488.546 21.12C488.126 20.16 487.916 19.02 487.916 17.7C487.916 16.38 488.126 15.246 488.546 14.298C488.966 13.338 489.548 12.6 490.292 12.084C491.036 11.568 491.888 11.31 492.848 11.31C493.82 11.31 494.672 11.568 495.404 12.084C496.148 12.6 496.73 13.338 497.15 14.298C497.57 15.246 497.78 16.38 497.78 17.7C497.78 19.02 497.57 20.16 497.15 21.12C496.73 22.068 496.148 22.8 495.404 23.316C494.672 23.832 493.82 24.09 492.848 24.09ZM492.848 23.244C493.652 23.244 494.354 23.028 494.954 22.596C495.554 22.152 496.022 21.516 496.358 20.688C496.694 19.86 496.862 18.864 496.862 17.7C496.862 16.524 496.694 15.528 496.358 14.712C496.022 13.884 495.554 13.254 494.954 12.822C494.354 12.378 493.652 12.156 492.848 12.156C492.056 12.156 491.354 12.378 490.742 12.822C490.142 13.254 489.674 13.884 489.338 14.712C489.002 15.528 488.834 16.524 488.834 17.7C488.834 18.864 489.002 19.86 489.338 20.688C489.674 21.516 490.142 22.152 490.742 22.596C491.354 23.028 492.056 23.244 492.848 23.244ZM501.837 24L507.381 11.832L507.705 12.228H499.659L500.127 11.796V14.64H499.227V11.4H508.263V12.048L502.845 24H501.837Z" fill="#8EA300"/>
<path d="M542.825 24.09C541.865 24.09 541.013 23.832 540.269 23.316C539.525 22.8 538.943 22.068 538.523 21.12C538.103 20.16 537.893 19.02 537.893 17.7C537.893 16.38 538.103 15.246 538.523 14.298C538.943 13.338 539.525 12.6 540.269 12.084C541.013 11.568 541.865 11.31 542.825 11.31C543.797 11.31 544.649 11.568 545.381 12.084C546.125 12.6 546.707 13.338 547.127 14.298C547.547 15.246 547.757 16.38 547.757 17.7C547.757 19.02 547.547 20.16 547.127 21.12C546.707 22.068 546.125 22.8 545.381 23.316C544.649 23.832 543.797 24.09 542.825 24.09ZM542.825 23.244C543.629 23.244 544.331 23.028 544.931 22.596C545.531 22.152 545.999 21.516 546.335 20.688C546.671 19.86 546.839 18.864 546.839 17.7C546.839 16.524 546.671 15.528 546.335 14.712C545.999 13.884 545.531 13.254 544.931 12.822C544.331 12.378 543.629 12.156 542.825 12.156C542.033 12.156 541.331 12.378 540.719 12.822C540.119 13.254 539.651 13.884 539.315 14.712C538.979 15.528 538.811 16.524 538.811 17.7C538.811 18.864 538.979 19.86 539.315 20.688C539.651 21.516 540.119 22.152 540.719 22.596C541.331 23.028 542.033 23.244 542.825 23.244ZM551.991 24V11.796L552.405 12.228H548.913V11.4H552.909V24H551.991Z" fill="#8EA300"/>
</svg>
