<svg width="735" height="155" viewBox="0 0 735 155" fill="none" xmlns="http://www.w3.org/2000/svg">
<path d="M76.593 151.076L94.95 3.37599H128.71L110.353 151.076H76.593ZM0 122.169V90.519H143.48V122.169H0ZM21.944 151.076L40.301 3.37599H74.061L55.704 151.076H21.944ZM7.174 63.933V32.283H150.654V63.933H7.174Z" fill="#262626"/>
<path d="M226.452 154.452C213.37 154.452 201.765 151.428 191.637 145.379C181.65 139.33 173.773 130.539 168.005 119.004C162.379 107.469 159.565 93.5433 159.565 77.226C159.565 60.9087 162.379 46.9827 168.005 35.448C173.773 23.9133 181.65 15.1217 191.637 9.073C201.765 3.02433 213.37 0 226.452 0C239.534 0 251.069 3.02433 261.056 9.073C271.184 15.1217 279.062 23.9133 284.688 35.448C290.456 46.9827 293.339 60.9087 293.339 77.226C293.339 93.5433 290.456 107.469 284.688 119.004C279.062 130.539 271.184 139.33 261.056 145.379C251.069 151.428 239.534 154.452 226.452 154.452ZM226.452 114.573C229.688 114.573 232.571 113.448 235.103 111.197C237.635 108.946 239.605 105.078 241.011 99.592C242.559 94.106 243.332 86.6507 243.332 77.226C243.332 67.6607 242.559 60.2053 241.011 54.86C239.605 49.374 237.635 45.5057 235.103 43.255C232.571 41.0043 229.688 39.879 226.452 39.879C223.217 39.879 220.333 41.0043 217.801 43.255C215.269 45.5057 213.23 49.374 211.682 54.86C210.276 60.2053 209.572 67.6607 209.572 77.226C209.572 86.6507 210.276 94.106 211.682 99.592C213.23 105.078 215.269 108.946 217.801 111.197C220.333 113.448 223.217 114.573 226.452 114.573Z" fill="#262626"/>
<path d="M311.566 151.076V3.37599H390.48C410.877 3.37599 425.928 7.03333 435.634 14.348C445.34 21.522 450.193 30.7357 450.193 41.989C450.193 49.4443 448.083 56.126 443.863 62.034C439.784 67.8013 433.806 72.373 425.928 75.749C418.051 79.125 408.345 80.813 396.81 80.813L401.03 69.419C412.565 69.419 422.482 71.0367 430.781 74.272C439.221 77.5073 445.692 82.2197 450.193 88.409C454.835 94.4577 457.156 101.772 457.156 110.353C457.156 123.154 451.811 133.141 441.12 140.315C430.57 147.489 415.097 151.076 394.7 151.076H311.566ZM360.518 116.261H390.48C395.966 116.261 400.046 115.276 402.718 113.307C405.532 111.338 406.938 108.454 406.938 104.656C406.938 100.858 405.532 97.9743 402.718 96.005C400.046 94.0357 395.966 93.051 390.48 93.051H357.142V60.135H383.728C389.355 60.135 393.434 59.2207 395.966 57.392C398.639 55.4227 399.975 52.6797 399.975 49.163C399.975 45.5057 398.639 42.7627 395.966 40.934C393.434 39.1053 389.355 38.191 383.728 38.191H360.518V116.261Z" fill="#262626"/>
<path d="M539.75 154.452C525.683 154.452 513.304 151.779 502.614 146.434C492.064 140.948 483.764 132.86 477.716 122.169C471.808 111.338 468.854 97.904 468.854 81.868C468.854 64.566 472.3 49.8663 479.193 37.769C486.085 25.531 495.651 16.1767 507.889 9.706C520.267 3.23533 534.545 0 550.722 0C559.443 0 567.813 1.055 575.831 3.165C583.989 5.13433 590.882 7.94766 596.509 11.605L578.574 46.42C574.213 43.3253 569.782 41.2857 565.281 40.301C560.92 39.1757 556.419 38.613 551.777 38.613C541.789 38.613 533.771 41.6373 527.723 47.686C521.815 53.594 518.861 62.245 518.861 73.639C518.861 75.749 518.861 77.859 518.861 79.969C518.861 81.9383 518.861 83.978 518.861 86.088L507.467 77.859C510.28 73.0763 513.586 69.0673 517.384 65.832C521.182 62.456 525.683 59.924 530.888 58.236C536.092 56.4073 542.141 55.493 549.034 55.493C558.036 55.493 566.336 57.4623 573.932 61.401C581.668 65.199 587.858 70.6147 592.5 77.648C597.282 84.6813 599.674 93.051 599.674 102.757C599.674 113.307 597.001 122.45 591.656 130.187C586.31 137.924 579.066 143.902 569.923 148.122C560.92 152.342 550.862 154.452 539.75 154.452ZM536.374 120.059C539.328 120.059 541.93 119.496 544.181 118.371C546.572 117.105 548.401 115.347 549.667 113.096C550.933 110.845 551.566 108.173 551.566 105.078C551.566 100.436 550.159 96.7787 547.346 94.106C544.532 91.2927 540.875 89.886 536.374 89.886C533.42 89.886 530.817 90.519 528.567 91.785C526.316 93.051 524.487 94.8093 523.081 97.06C521.815 99.3107 521.182 101.983 521.182 105.078C521.182 108.173 521.815 110.845 523.081 113.096C524.487 115.347 526.316 117.105 528.567 118.371C530.817 119.496 533.42 120.059 536.374 120.059Z" fill="#262626"/>
<path d="M660.681 66.254H725.669V103.812H660.681V66.254ZM664.057 151.076H614.261V3.37599H734.32V40.934H664.057V151.076Z" fill="#262626"/>
</svg>
