<svg width="220" height="38" viewBox="0 0 220 38" fill="none" xmlns="http://www.w3.org/2000/svg">
<path d="M0 18.985C0.00505296 8.50543 8.5971 -0.00200281 19.174 3.53676e-07C29.677 0.00200352 38.3398 8.43231 38.3257 19.029C38.3115 29.5306 29.7387 38.013 19.1416 38C8.5203 37.988 0.00505296 29.4555 0 18.985ZM36.6915 19.013C36.6723 9.28666 28.7382 1.6486 19.2113 1.62657C9.56222 1.60453 1.65939 9.34776 1.64423 18.976C1.62908 28.528 9.40861 36.3414 19.1062 36.3754C28.7604 36.4085 36.6622 28.6923 36.6915 19.013Z" fill="#7CF9B2"/>
<path d="M19.8121 11.5061C19.7656 11.406 19.7211 11.3028 19.6706 11.2027C19.0157 9.91263 18.179 8.74478 17.2381 7.64805C16.373 6.64046 15.4362 5.70298 14.4206 4.84462C14.3741 4.80556 14.3134 4.78152 14.2589 4.75048C14.271 4.72343 14.2831 4.69739 14.2963 4.67035C14.7419 4.55116 15.1846 4.41795 15.6333 4.31379C17.0784 3.97725 18.5458 3.8801 20.0263 3.93519C20.3871 3.94821 20.6812 4.05137 20.9662 4.29375C22.8984 5.94135 24.4487 7.87241 25.5037 10.1811C26.1677 11.6343 26.6002 13.1537 26.8246 14.7332C26.9772 15.8059 27.0489 16.8836 27.0156 17.9663C26.9337 20.6816 26.4011 23.3078 25.4148 25.8428C25.3835 25.9249 25.3511 26.006 25.3117 26.1082C25.3825 26.1222 25.4391 26.1433 25.4967 26.1433C25.8807 26.1463 26.2657 26.1382 26.6497 26.1483C26.8034 26.1523 26.8731 26.0872 26.9206 25.953C27.0328 25.6375 27.1561 25.325 27.2824 24.9914C29.1136 25.2338 30.6628 25.995 31.9705 27.3001C30.6699 28.6031 29.1217 29.3643 27.2864 29.6127C27.1389 29.2341 26.9964 28.8656 26.8448 28.4769C26.7377 28.4769 26.6407 28.4769 26.5436 28.4769C21.9566 28.4769 17.3695 28.4779 12.7824 28.4749C12.5974 28.4749 12.4347 28.512 12.271 28.5981C11.7334 28.8796 11.1887 29.146 10.651 29.4264C10.4237 29.5446 10.1892 29.6047 9.93251 29.6017C9.38679 29.5957 8.84208 29.5977 8.29636 29.6017C8.17307 29.6027 8.07504 29.5747 7.98813 29.4805C6.78855 28.1835 5.81636 26.7372 5.09278 25.1297C5.07863 25.0986 5.07257 25.0646 5.05539 25.0085C5.13421 25.0005 5.20091 24.9884 5.2666 24.9884C6.6976 24.9874 8.12759 24.9894 9.55859 24.9864C9.7688 24.9864 9.96384 25.0325 10.1548 25.1166C10.8653 25.4281 11.5788 25.7336 12.2892 26.0461C12.4479 26.1162 12.6076 26.1533 12.7814 26.1483C13.0401 26.1413 13.2998 26.1473 13.5595 26.1453C13.6464 26.1443 13.7334 26.1362 13.8486 26.1302C13.8253 25.9129 13.8081 25.7206 13.7829 25.5293C13.6545 24.5578 13.414 23.6183 12.9966 22.7259C12.3296 21.3006 11.2867 20.2079 9.96889 19.3595C8.75113 18.5763 7.42018 18.0445 6.03061 17.6528C5.3616 17.4635 4.68248 17.3073 3.97607 17.128C3.97607 17.0649 3.96496 16.9788 3.97809 16.8957C4.26914 15.0217 4.86034 13.2499 5.81737 11.6033C5.84365 11.5572 5.877 11.5162 5.92146 11.4491C6.1923 11.5132 6.46921 11.5743 6.74409 11.6454C8.60762 12.1251 10.4277 12.7251 12.1376 13.6135C12.6268 13.8679 13.0926 14.1683 13.5595 14.4638C13.8698 14.6601 13.8617 14.6721 14.2073 14.4328C14.1396 14.3526 14.077 14.2705 14.0072 14.1944C13.3473 13.4773 12.5884 12.8713 11.8062 12.2944C10.456 11.2988 9.04218 10.4024 7.5748 9.58511C7.49799 9.54204 7.42321 9.49697 7.32619 9.44088C7.47879 9.2636 7.6132 9.09934 7.7567 8.9431C8.87442 7.73118 10.1387 6.69855 11.5858 5.89027C11.7607 5.79312 11.9032 5.78311 12.0861 5.86023C13.2149 6.33498 14.2265 6.99702 15.1856 7.7432C16.5691 8.8179 17.8121 10.0408 18.9955 11.3249C19.0198 11.3509 19.043 11.3779 19.0673 11.404C19.3502 11.7145 19.3886 11.7205 19.8121 11.5061ZM23.6736 22.5155C23.6766 21.4719 22.8428 20.6336 21.7969 20.6285C20.7307 20.6235 19.8858 21.4518 19.8828 22.5065C19.8798 23.5572 20.7347 24.4065 21.7878 24.3995C22.8358 24.3915 23.6705 23.5572 23.6736 22.5155Z" fill="#7CF9B2"/>
<path fill-rule="evenodd" clip-rule="evenodd" d="M173.72 11.0931C175.882 11.1018 177.627 11.1463 179.04 11.3024C180.66 11.4814 181.778 11.801 182.565 12.3276C183.33 12.8388 183.838 13.5831 184.159 14.7424C184.486 15.9218 184.61 17.4995 184.61 19.6321V19.852L184.608 20.3443C184.584 22.7548 184.381 24.4044 183.882 25.5544C183.376 26.7216 182.55 27.4064 181.124 27.8229L180.42 28.0285L180.82 28.639C181.609 29.8419 182.398 31.0473 183.191 32.2538H176.974C176.933 32.2538 176.904 32.2509 176.884 32.2474L176.884 32.2472L176.865 32.2204L176.271 31.3323C175.679 30.4438 175.092 29.5542 174.506 28.6636L174.342 28.4154L174.044 28.4172C173.633 28.4197 173.207 28.4215 172.767 28.4215C170.159 28.4215 168.111 28.3887 166.496 28.21C164.876 28.0309 163.758 27.711 162.97 27.1841C162.205 26.6725 161.696 25.928 161.375 24.7685C161.048 23.5889 160.924 22.0109 160.924 19.8783V19.6321C160.924 17.4996 161.048 15.922 161.375 14.7426C161.696 13.5835 162.205 12.8389 162.97 12.3276C163.758 11.8009 164.876 11.4814 166.496 11.3024C168.111 11.124 170.159 11.0913 172.767 11.0913L173.72 11.0931ZM172.767 14.0575C171.307 14.0575 170.131 14.0616 169.204 14.1489C168.283 14.2355 167.522 14.4099 166.942 14.8118C166.335 15.232 166.004 15.8449 165.822 16.6331C165.646 17.4027 165.6 18.3918 165.6 19.6321V19.8783C165.6 21.0166 165.639 21.9405 165.78 22.6759C165.923 23.4181 166.18 24.0255 166.663 24.4755C167.142 24.9219 167.774 25.1505 168.532 25.2775C169.287 25.404 170.231 25.4394 171.384 25.45L172.404 25.4593L171.848 24.6117C171.68 24.3562 171.512 24.0997 171.344 23.843H177.56C177.601 23.843 177.631 23.846 177.651 23.8494L177.669 23.8764C177.785 24.05 177.9 24.2227 178.018 24.3981L178.371 24.927L178.843 24.4991C179.338 24.0512 179.602 23.4426 179.748 22.6961C179.893 21.9572 179.932 21.0268 179.932 19.8783V19.6321C179.932 18.3919 179.887 17.4029 179.71 16.6333C179.529 15.8452 179.198 15.232 178.591 14.8118C178.011 14.4098 177.25 14.2355 176.33 14.1489C175.403 14.0616 174.226 14.0575 172.767 14.0575Z" fill="white"/>
<path fill-rule="evenodd" clip-rule="evenodd" d="M85.0217 11.0931C87.1767 11.1019 88.8888 11.1463 90.2564 11.3022C91.824 11.4809 92.8645 11.7993 93.5781 12.3159C94.2702 12.817 94.7197 13.5529 94.9958 14.7222C95.276 15.9093 95.3658 17.4931 95.3658 19.6321V19.852L95.3647 20.2479C95.3538 22.1948 95.2583 23.6614 94.9955 24.7781C94.7193 25.9516 94.2698 26.6901 93.5776 27.1929C92.864 27.7111 91.8237 28.0305 90.2562 28.2098C88.6932 28.3885 86.6805 28.4215 84.0707 28.4215C81.4618 28.4215 79.4493 28.3884 77.8864 28.21C76.3188 28.0311 75.2779 27.7127 74.5639 27.1958C73.8714 26.6944 73.4218 25.958 73.1454 24.7884C72.8648 23.6012 72.7746 22.0173 72.7746 19.8783V19.6321C72.7746 17.4932 72.8648 15.9095 73.1454 14.7225C73.4218 13.5532 73.8714 12.8173 74.5639 12.3162C75.2779 11.7995 76.3187 11.4809 77.8864 11.3022C79.4494 11.124 81.4618 11.0913 84.0707 11.0913L85.0217 11.0931ZM84.0702 14.0575C82.6119 14.0575 81.4675 14.0615 80.5897 14.1491C79.7204 14.2359 79.0074 14.412 78.4852 14.837C77.9434 15.278 77.7003 15.9071 77.5805 16.6702C77.4623 17.4239 77.4512 18.403 77.4512 19.6321V19.8783C77.4512 21.1077 77.4623 22.0871 77.5805 22.841C77.7003 23.6042 77.9434 24.2336 78.4852 24.6747C79.0074 25.0999 79.7204 25.2762 80.5897 25.3631C81.4675 25.4508 82.6119 25.4548 84.0702 25.4548C85.5286 25.4548 86.673 25.4508 87.5507 25.3631C88.4199 25.2762 89.1327 25.0997 89.6546 24.6745C90.1962 24.2332 90.4389 23.6039 90.5585 22.8407C90.6766 22.0869 90.6879 21.1075 90.6879 19.8783V19.6321C90.6879 18.4031 90.6766 17.4241 90.5585 16.6704C90.4389 15.9075 90.1963 15.2783 89.6546 14.8372C89.1326 14.4121 88.4197 14.2359 87.5504 14.1491C86.6728 14.0615 85.5285 14.0575 84.0702 14.0575Z" fill="white"/>
<path d="M53.8299 11.4588V19.7034L64.2211 11.5123L64.2259 11.5086L64.2304 11.5046C64.2743 11.4684 64.2922 11.4619 64.2927 11.4617C64.2933 11.4615 64.2942 11.4611 64.2973 11.4606C64.3009 11.46 64.31 11.4588 64.3272 11.4588H69.5561L60.4385 18.5569L70.2814 28.0511H64.4753C64.4507 28.0511 64.4369 28.0494 64.4304 28.0484L64.4299 28.0481L64.3879 28.0116L64.3876 28.0111L57.2283 21.0467L53.8299 23.6904V28.0511H49.5498V11.4588H53.8299Z" fill="white"/>
<path fill-rule="evenodd" clip-rule="evenodd" d="M109.6 11.4588L110.569 11.4606C112.765 11.4693 114.508 11.5131 115.9 11.6649C117.496 11.839 118.555 12.1488 119.279 12.65C119.978 13.1341 120.426 13.8403 120.701 14.9596C120.981 16.0995 121.069 17.6215 121.069 19.6817V19.8274C121.069 21.8873 120.981 23.4093 120.701 24.5492C120.427 25.6686 119.978 26.3751 119.279 26.8593C118.555 27.3606 117.496 27.6704 115.9 27.8447C114.31 28.0183 112.26 28.0511 109.6 28.0511H99.8464V11.4588H109.6ZM104.154 14.3992V25.1109H109.627L110.683 25.1082C111.681 25.1016 112.51 25.0801 113.189 25.0141C114.086 24.927 114.816 24.7561 115.358 24.3653C115.93 23.9538 116.212 23.3618 116.356 22.6309C116.496 21.9188 116.518 21.0061 116.518 19.8783V19.6321C116.518 18.5041 116.496 17.5914 116.356 16.8792C116.212 16.1483 115.93 15.5563 115.358 15.1448C114.816 14.754 114.086 14.583 113.189 14.496C112.283 14.408 111.112 14.3992 109.626 14.3992H104.154Z" fill="white"/>
<path d="M128.839 11.4588V28.0511H124.559V11.4588H128.839Z" fill="white"/>
<path fill-rule="evenodd" clip-rule="evenodd" d="M149.121 11.4588L157.514 28.0511H153.004L151.573 25.2765H139.16L137.725 28.0511H133.217L141.611 11.4588H149.121ZM144.707 14.4231L140.494 22.656H150.237L146.027 14.4231H144.707Z" fill="white"/>
<path d="M192.401 6.3339H204.637V13.4052H203.468V7.43221H193.54V13.4804H192.401V6.3339ZM193.009 11.4343H204.151V12.5476H193.009V11.4343ZM197.897 3.64079H199.096V17.4674H197.897V3.64079Z" fill="white"/>
<path d="M209.798 6.64985H217.601V7.65789H209.798V6.64985ZM210.223 9.80937H217.237V10.7873H210.223V9.80937ZM209.586 13.33H217.92V14.2929H209.586V13.33ZM213.093 6.96581H214.17V13.8566H213.093V6.96581ZM215.112 11.4644L215.855 11.0581C216.149 11.2989 216.437 11.5747 216.721 11.8856C217.014 12.1966 217.242 12.4724 217.404 12.7131L216.615 13.1795C216.463 12.9388 216.245 12.6579 215.962 12.337C215.678 12.006 215.395 11.7151 215.112 11.4644ZM207.43 4.31783H220V17.4825H218.801V5.371H208.584V17.4825H207.43V4.31783ZM208.037 15.677H219.347V16.7302H208.037V15.677Z" fill="white"/>
</svg>
