<svg width="675" height="141" viewBox="0 0 675 141" fill="none" xmlns="http://www.w3.org/2000/svg">
<path d="M0 70.0943C0.018458 31.4692 31.4044 0.112796 70.0406 0.12018C108.407 0.127563 140.052 31.1997 140 70.2567C139.948 108.963 108.632 140.227 69.9224 140.179C31.1238 140.135 0.018458 108.686 0 70.0943ZM134.031 70.1977C133.96 34.3486 104.978 6.19654 70.1772 6.11533C34.9298 6.03411 6.0616 34.5738 6.00623 70.0611C5.95085 105.268 34.3687 134.066 69.7932 134.191C105.059 134.313 133.924 105.873 134.031 70.1977Z" fill="#7CF9B2"/>
<path d="M72.3721 42.5291C72.2023 42.16 72.0398 41.7797 71.8553 41.4106C69.4631 36.6558 66.4065 32.3514 62.9696 28.3091C59.8096 24.5954 56.3875 21.14 52.6775 17.9763C52.5076 17.8324 52.2861 17.7438 52.0868 17.6293C52.1311 17.5297 52.1754 17.4337 52.2234 17.334C53.8514 16.8947 55.4683 16.4037 57.1074 16.0198C62.3863 14.7794 67.7465 14.4213 73.1547 14.6244C74.4726 14.6724 75.5469 15.0526 76.5879 15.946C83.6462 22.0186 89.3091 29.136 93.1631 37.6451C95.5885 43.0016 97.1685 48.6018 97.9881 54.4234C98.5455 58.3771 98.8076 62.3493 98.6858 66.3399C98.3868 76.3478 96.4413 86.0271 92.8383 95.3706C92.7238 95.6733 92.6057 95.9723 92.4617 96.3488C92.7201 96.4005 92.9269 96.478 93.1373 96.478C94.5401 96.4891 95.9466 96.4596 97.3494 96.4965C97.9105 96.5113 98.1653 96.2713 98.3388 95.7766C98.7485 94.6138 99.1989 93.462 99.6603 92.2327C106.35 93.1261 112.009 95.9317 116.786 100.742C112.035 105.545 106.379 108.35 99.6751 109.266C99.1362 107.87 98.6156 106.512 98.0619 105.079C97.6706 105.079 97.3162 105.079 96.9618 105.079C80.2056 105.079 63.4495 105.083 46.6934 105.072C46.0178 105.072 45.4235 105.209 44.8254 105.526C42.8615 106.563 40.8717 107.545 38.9078 108.579C38.0772 109.015 37.2207 109.236 36.2831 109.225C34.2896 109.203 32.2998 109.21 30.3064 109.225C29.856 109.229 29.4979 109.125 29.1805 108.778C24.7985 103.998 21.2472 98.6671 18.604 92.7421C18.5524 92.6277 18.5302 92.5022 18.4675 92.2955C18.7554 92.2659 18.999 92.2216 19.239 92.2216C24.4663 92.2179 29.6899 92.2253 34.9172 92.2142C35.685 92.2142 36.3975 92.3841 37.0952 92.6941C39.6904 93.8422 42.2967 94.9682 44.8919 96.1199C45.4715 96.3784 46.0547 96.515 46.6897 96.4965C47.6347 96.4707 48.5835 96.4928 49.5322 96.4854C49.8497 96.4817 50.1672 96.4522 50.588 96.43C50.5031 95.629 50.4404 94.9202 50.3481 94.2151C49.8792 90.6343 49.0006 87.1715 47.476 83.8823C45.0395 78.6292 41.2298 74.6017 36.416 71.4749C31.9676 68.5881 27.1058 66.6278 22.0298 65.1844C19.586 64.4867 17.1053 63.9108 14.5248 63.25C14.5248 63.0175 14.4842 62.7 14.5322 62.3936C15.5954 55.4866 17.755 48.9562 21.2509 42.8872C21.3469 42.7174 21.4687 42.566 21.6311 42.3187C22.6205 42.555 23.632 42.7801 24.6361 43.0422C31.4434 44.8105 38.092 47.0218 44.3381 50.2962C46.1249 51.2339 47.8267 52.3414 49.5322 53.4304C50.6655 54.1539 50.636 54.1982 51.8985 53.3159C51.6512 53.0206 51.4223 52.7179 51.1676 52.4373C48.757 49.7942 45.9846 47.5608 43.1273 45.4344C38.1953 41.765 33.0308 38.461 27.6706 35.4486C27.39 35.2899 27.1169 35.1238 26.7625 34.9171C27.3199 34.2636 27.8109 33.6582 28.3351 33.0823C32.418 28.6155 37.0362 24.8095 42.3225 21.8304C42.9612 21.4723 43.4817 21.4354 44.1499 21.7196C48.2734 23.4694 51.9687 25.9096 55.472 28.6598C60.5258 32.6209 65.0664 37.1283 69.3893 41.8609C69.4779 41.9569 69.5628 42.0566 69.6514 42.1526C70.685 43.297 70.8253 43.3191 72.3721 42.5291ZM86.4777 83.1071C86.4888 79.2604 83.4432 76.1706 79.6224 76.1521C75.7278 76.1337 72.6416 79.1866 72.6305 83.0739C72.6194 86.9463 75.7425 90.0768 79.5892 90.051C83.4173 90.0214 86.4666 86.9463 86.4777 83.1071Z" fill="#7CF9B2"/>
<path fill-rule="evenodd" clip-rule="evenodd" d="M634.58 41.0068C642.478 41.0389 648.852 41.2027 654.017 41.7783C659.934 42.4379 664.016 43.6158 666.893 45.5566C669.685 47.4411 671.543 50.1844 672.716 54.457C673.909 58.8041 674.361 64.6192 674.361 72.4795V73.29L674.353 75.1045C674.267 83.989 673.525 90.0691 671.703 94.3076C669.854 98.6096 666.837 101.134 661.629 102.669L659.056 103.427L660.518 105.677C663.399 110.11 666.28 114.553 669.177 119H646.47C646.318 119 646.211 118.989 646.14 118.977L646.138 118.976L646.071 118.877L643.901 115.604C641.738 112.329 639.592 109.05 637.452 105.768L636.855 104.853L635.765 104.859C634.263 104.868 632.709 104.875 631.102 104.875C621.574 104.875 614.093 104.754 608.191 104.096C602.275 103.436 598.191 102.256 595.313 100.314C592.519 98.4288 590.66 95.6845 589.485 91.4111C588.291 87.0633 587.838 81.2472 587.838 73.3867V72.4795C587.838 64.6197 588.291 58.8049 589.485 54.458C590.66 50.1856 592.518 47.4414 595.312 45.5566C598.19 43.6156 602.274 42.4379 608.191 41.7783C614.093 41.1205 621.574 41 631.102 41L634.58 41.0068ZM631.1 51.9326C625.768 51.9326 621.47 51.9479 618.084 52.2695C614.722 52.5889 611.94 53.2317 609.821 54.7129C607.606 56.2616 606.394 58.5207 605.732 61.4258C605.086 64.2623 604.921 67.9079 604.921 72.4795V73.3867C604.921 77.5825 605.061 80.9877 605.577 83.6982C606.098 86.4337 607.04 88.6724 608.803 90.3311C610.551 91.9762 612.863 92.819 615.631 93.2871C618.389 93.7535 621.836 93.8836 626.048 93.9229L629.774 93.957L627.743 90.833C627.131 89.8915 626.516 88.9461 625.901 88H648.608C648.76 88 648.868 88.0108 648.939 88.0234L649.007 88.123C649.432 88.7628 649.852 89.3993 650.28 90.0459L651.571 91.9951L653.297 90.418C655.103 88.7674 656.069 86.5242 656.603 83.7725C657.131 81.0491 657.273 77.6199 657.273 73.3867V72.4795C657.273 67.9082 657.108 64.2631 656.463 61.4268C655.802 58.5217 654.59 56.2618 652.376 54.7129C650.258 53.2314 647.476 52.5889 644.114 52.2695C640.728 51.9479 636.432 51.9326 631.1 51.9326Z" fill="white"/>
<path fill-rule="evenodd" clip-rule="evenodd" d="M310.575 41.0068C318.447 41.039 324.701 41.2026 329.697 41.7773C335.424 42.4361 339.224 43.6097 341.831 45.5137C344.359 47.3604 346.001 50.0729 347.01 54.3828C348.033 58.758 348.361 64.5957 348.361 72.4795V73.29L348.357 74.749C348.318 81.925 347.969 87.3303 347.009 91.4463C346 95.7718 344.358 98.4938 341.829 100.347C339.223 102.257 335.422 103.434 329.696 104.095C323.987 104.754 316.635 104.875 307.102 104.875C297.571 104.875 290.22 104.753 284.511 104.096C278.784 103.436 274.982 102.263 272.374 100.357C269.844 98.5094 268.202 95.7952 267.192 91.4844C266.168 87.1085 265.838 81.2706 265.838 73.3867V72.4795C265.838 64.5959 266.168 58.7588 267.192 54.3838C268.202 50.074 269.844 47.3617 272.374 45.5146C274.982 43.6102 278.784 42.4361 284.511 41.7773C290.22 41.1205 297.571 41 307.102 41L310.575 41.0068ZM307.1 51.9326C301.772 51.9326 297.592 51.9475 294.386 52.2705C291.21 52.5904 288.606 53.2393 286.698 54.8057C284.719 56.4311 283.831 58.7501 283.394 61.5625C282.962 64.3405 282.921 67.9494 282.921 72.4795V73.3867C282.921 77.9181 282.962 81.5278 283.394 84.3066C283.831 87.1198 284.719 89.4394 286.698 91.0654C288.606 92.6324 291.21 93.2824 294.386 93.6025C297.592 93.9258 301.773 93.9404 307.1 93.9404C312.427 93.9404 316.607 93.926 319.813 93.6025C322.989 93.2822 325.592 92.6318 327.499 91.0645C329.477 89.4381 330.364 87.1184 330.801 84.3057C331.232 81.5271 331.273 77.9175 331.273 73.3867V72.4795C331.273 67.9497 331.232 64.3413 330.801 61.5635C330.364 58.7513 329.478 56.4323 327.499 54.8066C325.592 53.2399 322.988 52.5904 319.812 52.2705C316.606 51.9475 312.427 51.9326 307.1 51.9326Z" fill="white"/>
<path d="M196.635 42.3545V72.7422L234.593 42.5518L234.61 42.5381L234.627 42.5234C234.787 42.3899 234.852 42.366 234.854 42.3652C234.857 42.3645 234.86 42.3633 234.871 42.3613C234.884 42.3591 234.918 42.3545 234.98 42.3545H254.081L220.775 68.5166L256.73 103.51H235.521C235.431 103.51 235.381 103.504 235.357 103.5L235.355 103.499L235.202 103.364L235.201 103.362L209.049 77.6934L196.635 87.4375V103.51H181V42.3545H196.635Z" fill="white"/>
<path fill-rule="evenodd" clip-rule="evenodd" d="M400.357 42.3545L403.897 42.3613C411.918 42.3931 418.287 42.5548 423.37 43.1143C429.2 43.756 433.069 44.8978 435.714 46.7451C438.268 48.5292 439.905 51.1323 440.908 55.2578C441.93 59.459 442.253 65.0689 442.253 72.6621V73.1992C442.253 80.7916 441.931 86.4012 440.909 90.6025C439.906 94.7284 438.269 97.3325 435.714 99.1172C433.069 100.965 429.201 102.107 423.371 102.749C417.562 103.389 410.073 103.51 400.358 103.51H364.729V42.3545H400.357ZM380.463 53.1924V92.6729H400.455L404.312 92.6631C407.959 92.6388 410.986 92.5596 413.469 92.3164C416.746 91.9954 419.41 91.3651 421.393 89.9248C423.479 88.4084 424.511 86.2262 425.036 83.5322C425.548 80.9076 425.628 77.5438 425.628 73.3867V72.4795C425.628 68.3219 425.548 64.9578 425.036 62.333C424.511 59.6389 423.48 57.4568 421.393 55.9404C419.41 54.4999 416.745 53.8698 413.468 53.5488C410.157 53.2246 405.88 53.1924 400.453 53.1924H380.463Z" fill="white"/>
<path d="M470.635 42.3545V103.51H455V42.3545H470.635Z" fill="white"/>
<path fill-rule="evenodd" clip-rule="evenodd" d="M544.725 42.3545L575.384 103.51H558.908L553.68 93.2832H508.337L503.094 103.51H486.628L517.291 42.3545H544.725ZM528.6 53.2803L513.209 83.625H548.802L533.421 53.2803H528.6Z" fill="white"/>
</svg>
