<svg width="804" height="141" viewBox="0 0 804 141" fill="none" xmlns="http://www.w3.org/2000/svg">
<path d="M0 69.9741C0.018458 31.349 31.4044 -0.00738188 70.0406 1.30357e-06C108.407 0.00738449 140.052 31.0795 140 70.1366C139.948 108.843 108.632 140.107 69.9224 140.059C31.1238 140.015 0.018458 108.566 0 69.9741ZM134.031 70.0775C133.96 34.2284 104.978 6.07636 70.1772 5.99515C34.9298 5.91393 6.0616 34.4536 6.00623 69.9409C5.95085 105.148 34.3687 133.946 69.7932 134.071C105.059 134.193 133.924 105.753 134.031 70.0775Z" fill="#7CF9B2"/>
<path d="M72.3721 42.4089C72.2023 42.0398 72.0398 41.6595 71.8553 41.2904C69.4631 36.5356 66.4065 32.2312 62.9696 28.1889C59.8096 24.4752 56.3875 21.0199 52.6775 17.8562C52.5076 17.7122 52.2861 17.6236 52.0868 17.5092C52.1311 17.4095 52.1754 17.3135 52.2234 17.2138C53.8514 16.7745 55.4683 16.2835 57.1074 15.8996C62.3863 14.6592 67.7465 14.3012 73.1547 14.5042C74.4726 14.5522 75.5469 14.9324 76.5879 15.8258C83.6462 21.8985 89.3091 29.0158 93.1631 37.525C95.5885 42.8815 97.1685 48.4816 97.9881 54.3032C98.5455 58.2569 98.8076 62.2291 98.6858 66.2197C98.3868 76.2276 96.4413 85.907 92.8383 95.2504C92.7238 95.5531 92.6057 95.8521 92.4617 96.2287C92.7201 96.2803 92.9269 96.3579 93.1373 96.3579C94.5401 96.3689 95.9466 96.3394 97.3494 96.3763C97.9105 96.3911 98.1653 96.1511 98.3388 95.6565C98.7485 94.4936 99.1989 93.3418 99.6603 92.1125C106.35 93.0059 112.009 95.8115 116.786 100.622C112.035 105.424 106.379 108.23 99.6751 109.146C99.1362 107.75 98.6156 106.392 98.0619 104.959C97.6706 104.959 97.3162 104.959 96.9618 104.959C80.2056 104.959 63.4495 104.963 46.6934 104.952C46.0178 104.952 45.4235 105.088 44.8254 105.406C42.8615 106.443 40.8717 107.425 38.9078 108.459C38.0772 108.894 37.2207 109.116 36.2831 109.105C34.2896 109.083 32.2998 109.09 30.3064 109.105C29.856 109.109 29.4979 109.005 29.1805 108.658C24.7985 103.878 21.2472 98.547 18.604 92.622C18.5524 92.5075 18.5302 92.382 18.4675 92.1753C18.7554 92.1458 18.999 92.1014 19.239 92.1014C24.4663 92.0978 29.6899 92.1051 34.9172 92.0941C35.685 92.0941 36.3975 92.2639 37.0952 92.574C39.6904 93.7221 42.2967 94.848 44.8919 95.9998C45.4715 96.2582 46.0547 96.3948 46.6897 96.3763C47.6347 96.3505 48.5835 96.3726 49.5322 96.3652C49.8497 96.3616 50.1672 96.332 50.588 96.3099C50.5031 95.5088 50.4404 94.8 50.3481 94.0949C49.8792 90.5141 49.0006 87.0514 47.476 83.7621C45.0395 78.509 41.2298 74.4815 36.416 71.3547C31.9676 68.4679 27.1058 66.5076 22.0298 65.0642C19.586 64.3665 17.1053 63.7906 14.5248 63.1298C14.5248 62.8973 14.4842 62.5798 14.5322 62.2734C15.5954 55.3664 17.755 48.836 21.2509 42.767C21.3469 42.5972 21.4687 42.4459 21.6311 42.1985C22.6205 42.4348 23.632 42.66 24.6361 42.9221C31.4434 44.6903 38.092 46.9016 44.3381 50.1761C46.1249 51.1137 47.8267 52.2212 49.5322 53.3102C50.6655 54.0338 50.636 54.0781 51.8985 53.1958C51.6512 52.9004 51.4223 52.5977 51.1676 52.3172C48.757 49.674 45.9846 47.4406 43.1273 45.3142C38.1953 41.6448 33.0308 38.3408 27.6706 35.3285C27.39 35.1697 27.1169 35.0036 26.7625 34.7969C27.3199 34.1435 27.8109 33.538 28.3351 32.9622C32.418 28.4953 37.0362 24.6893 42.3225 21.7102C42.9612 21.3521 43.4817 21.3152 44.1499 21.5994C48.2734 23.3493 51.9687 25.7894 55.472 28.5396C60.5258 32.5007 65.0664 37.0081 69.3893 41.7408C69.4779 41.8367 69.5628 41.9364 69.6514 42.0324C70.685 43.1768 70.8253 43.1989 72.3721 42.4089ZM86.4777 82.9869C86.4888 79.1403 83.4432 76.0504 79.6224 76.032C75.7278 76.0135 72.6416 79.0664 72.6305 82.9537C72.6194 86.8262 75.7425 89.9566 79.5892 89.9308C83.4173 89.9013 86.4666 86.8262 86.4777 82.9869Z" fill="#7CF9B2"/>
<path fill-rule="evenodd" clip-rule="evenodd" d="M634.58 40.8867C642.478 40.9188 648.852 41.0825 654.017 41.6581C659.934 42.3177 664.016 43.4956 666.893 45.4365C669.685 47.3209 671.543 50.0642 672.716 54.3369C673.909 58.6839 674.361 64.4991 674.361 72.3593V73.1699L674.353 74.9843C674.267 83.8688 673.525 89.9489 671.703 94.1874C669.854 98.4894 666.837 101.014 661.629 102.549L659.056 103.307L660.518 105.557C663.399 109.99 666.28 114.433 669.177 118.88H646.47C646.318 118.88 646.211 118.869 646.14 118.856L646.138 118.855L646.071 118.757L643.901 115.483C641.738 112.208 639.592 108.93 637.452 105.647L636.855 104.732L635.765 104.739C634.263 104.748 632.709 104.755 631.102 104.755C621.574 104.755 614.093 104.634 608.191 103.976C602.275 103.315 598.191 102.136 595.313 100.194C592.519 98.3086 590.66 95.5643 589.485 91.291C588.291 86.9431 587.838 81.127 587.838 73.2665V72.3593C587.838 64.4996 588.291 58.6847 589.485 54.3378C590.66 50.0654 592.518 47.3212 595.312 45.4365C598.19 43.4954 602.274 42.3177 608.191 41.6581C614.093 41.0004 621.574 40.8798 631.102 40.8798L634.58 40.8867ZM631.1 51.8124C625.768 51.8124 621.47 51.8277 618.084 52.1494C614.722 52.4687 611.94 53.1115 609.821 54.5927C607.606 56.1414 606.394 58.4005 605.732 61.3056C605.086 64.1421 604.921 67.7877 604.921 72.3593V73.2665C604.921 77.4623 605.061 80.8676 605.577 83.5781C606.098 86.3135 607.04 88.5522 608.803 90.2109C610.551 91.8561 612.863 92.6988 615.631 93.1669C618.389 93.6333 621.836 93.7634 626.048 93.8027L629.774 93.8369L627.743 90.7128C627.131 89.7713 626.516 88.8259 625.901 87.8798H648.608C648.76 87.8798 648.868 87.8906 648.939 87.9033L649.007 88.0029C649.432 88.6426 649.852 89.2791 650.28 89.9257L651.571 91.8749L653.297 90.2978C655.103 88.6472 656.069 86.404 656.603 83.6523C657.131 80.9289 657.273 77.4997 657.273 73.2665V72.3593C657.273 67.7881 657.108 64.1429 656.463 61.3066C655.802 58.4016 654.59 56.1417 652.376 54.5927C650.258 53.1113 647.476 52.4687 644.114 52.1494C640.728 51.8277 636.432 51.8124 631.1 51.8124Z" fill="white"/>
<path fill-rule="evenodd" clip-rule="evenodd" d="M310.575 40.8867C318.447 40.9188 324.701 41.0824 329.697 41.6572C335.424 42.3159 339.224 43.4895 341.831 45.3935C344.359 47.2402 346.001 49.9527 347.01 54.2626C348.033 58.6378 348.361 64.4755 348.361 72.3593V73.1699L348.357 74.6288C348.318 81.8048 347.969 87.2101 347.009 91.3261C346 95.6516 344.358 98.3736 341.829 100.227C339.223 102.136 335.422 103.314 329.696 103.975C323.987 104.633 316.635 104.755 307.102 104.755C297.571 104.755 290.22 104.633 284.511 103.976C278.784 103.316 274.982 102.143 272.374 100.237C269.844 98.3892 268.202 95.6751 267.192 91.3642C266.168 86.9883 265.838 81.1504 265.838 73.2665V72.3593C265.838 64.4757 266.168 58.6386 267.192 54.2636C268.202 49.9538 269.844 47.2415 272.374 45.3945C274.982 43.49 278.784 42.316 284.511 41.6572C290.22 41.0004 297.571 40.8798 307.102 40.8798L310.575 40.8867ZM307.1 51.8124C301.772 51.8124 297.592 51.8273 294.386 52.1503C291.21 52.4702 288.606 53.1191 286.698 54.6855C284.719 56.3109 283.831 58.63 283.394 61.4423C282.962 64.2203 282.921 67.8293 282.921 72.3593V73.2665C282.921 77.7979 282.962 81.4076 283.394 84.1865C283.831 86.9996 284.719 89.3192 286.698 90.9453C288.606 92.5122 291.21 93.1622 294.386 93.4824C297.592 93.8056 301.773 93.8203 307.1 93.8203C312.427 93.8203 316.607 93.8058 319.813 93.4824C322.989 93.162 325.592 92.5116 327.499 90.9443C329.477 89.318 330.364 86.9982 330.801 84.1855C331.232 81.4069 331.273 77.7974 331.273 73.2665V72.3593C331.273 67.8295 331.232 64.2211 330.801 61.4433C330.364 58.6312 329.478 56.3122 327.499 54.6865C325.592 53.1197 322.988 52.4703 319.812 52.1503C316.606 51.8273 312.427 51.8124 307.1 51.8124Z" fill="white"/>
<path d="M196.635 42.2343V72.622L234.593 42.4316L234.61 42.4179L234.627 42.4033C234.787 42.2698 234.852 42.2459 234.854 42.2451C234.857 42.2443 234.86 42.2431 234.871 42.2411C234.884 42.2389 234.918 42.2343 234.98 42.2343H254.081L220.775 68.3964L256.73 103.39H235.521C235.431 103.39 235.381 103.383 235.357 103.38L235.355 103.379L235.202 103.244L235.201 103.242L209.049 77.5732L196.635 87.3173V103.39H181V42.2343H196.635Z" fill="white"/>
<path fill-rule="evenodd" clip-rule="evenodd" d="M400.357 42.2343L403.897 42.2411C411.918 42.273 418.287 42.4346 423.37 42.9941C429.2 43.6358 433.069 44.7776 435.714 46.6249C438.268 48.409 439.905 51.0122 440.908 55.1376C441.93 59.3388 442.253 64.9487 442.253 72.5419V73.079C442.253 80.6714 441.931 86.281 440.909 90.4824C439.906 94.6082 438.269 97.2123 435.714 98.997C433.069 100.845 429.201 101.987 423.371 102.629C417.562 103.269 410.073 103.39 400.358 103.39H364.729V42.2343H400.357ZM380.463 53.0722V92.5527H400.455L404.312 92.5429C407.959 92.5186 410.986 92.4394 413.469 92.1962C416.746 91.8752 419.41 91.245 421.393 89.8046C423.479 88.2882 424.511 86.106 425.036 83.412C425.548 80.7874 425.628 77.4237 425.628 73.2665V72.3593C425.628 68.2018 425.548 64.8376 425.036 62.2128C424.511 59.5187 423.48 57.3367 421.393 55.8203C419.41 54.3797 416.745 53.7497 413.468 53.4286C410.157 53.1044 405.88 53.0722 400.453 53.0722H380.463Z" fill="white"/>
<path d="M470.635 42.2343V103.39H455V42.2343H470.635Z" fill="white"/>
<path fill-rule="evenodd" clip-rule="evenodd" d="M544.725 42.2343L575.384 103.39H558.908L553.68 93.163H508.337L503.094 103.39H486.628L517.291 42.2343H544.725ZM528.6 53.1601L513.209 83.5048H548.802L533.421 53.1601H528.6Z" fill="white"/>
<path d="M702.823 23.3453H747.519V49.4084H743.249V27.3934H706.982V49.6857H702.823V23.3453ZM705.041 42.144H745.744V46.2476H705.041V42.144ZM722.897 13.4191H727.278V64.3808H722.897V13.4191Z" fill="white"/>
<path d="M766.373 24.5098H794.876V28.2252H766.373V24.5098ZM767.926 36.155H793.545V39.7595H767.926V36.155ZM765.597 49.1311H796.04V52.6802H765.597V49.1311ZM778.406 25.6743H782.343V51.072H778.406V25.6743ZM785.782 42.2549L788.499 40.7577C789.571 41.6449 790.625 42.6616 791.66 43.8076C792.732 44.9537 793.564 45.9703 794.155 46.8576L791.271 48.5766C790.717 47.6894 789.922 46.6542 788.887 45.4712C787.852 44.2512 786.817 43.1791 785.782 42.2549ZM757.722 15.9145H803.638V64.4363H799.257V19.7963H761.937V64.4363H757.722V15.9145ZM759.94 57.7819H801.253V61.6636H759.94V57.7819Z" fill="white"/>
</svg>
