<svg width="39" height="38" viewBox="0 0 39 38" fill="none" xmlns="http://www.w3.org/2000/svg">
<path d="M0 18.985C0.00505296 8.50543 8.5971 -0.00200281 19.174 3.53676e-07C29.677 0.00200352 38.3398 8.43231 38.3257 19.029C38.3115 29.5306 29.7387 38.013 19.1416 38C8.5203 37.988 0.00505296 29.4555 0 18.985ZM36.6915 19.013C36.6723 9.28666 28.7382 1.6486 19.2113 1.62657C9.56222 1.60453 1.65939 9.34776 1.64423 18.976C1.62908 28.528 9.40861 36.3414 19.1062 36.3754C28.7604 36.4085 36.6622 28.6923 36.6915 19.013Z" fill="#7CF9B2"/>
<path d="M19.8121 11.5061C19.7656 11.406 19.7211 11.3028 19.6706 11.2027C19.0157 9.91263 18.179 8.74479 17.2381 7.64805C16.373 6.64046 15.4362 5.70298 14.4206 4.84463C14.3741 4.80557 14.3134 4.78153 14.2589 4.75048C14.271 4.72344 14.2831 4.6974 14.2963 4.67035C14.7419 4.55117 15.1846 4.41796 15.6333 4.31379C17.0784 3.97726 18.5458 3.88011 20.0263 3.93519C20.3871 3.94821 20.6812 4.05138 20.9662 4.29376C22.8984 5.94136 24.4487 7.87241 25.5037 10.1811C26.1677 11.6344 26.6002 13.1537 26.8246 14.7332C26.9772 15.8059 27.0489 16.8836 27.0156 17.9663C26.9337 20.6816 26.4011 23.3078 25.4148 25.8428C25.3835 25.9249 25.3511 26.006 25.3117 26.1082C25.3825 26.1222 25.4391 26.1433 25.4967 26.1433C25.8807 26.1463 26.2657 26.1383 26.6497 26.1483C26.8034 26.1523 26.8731 26.0872 26.9206 25.953C27.0328 25.6375 27.1561 25.325 27.2824 24.9914C29.1136 25.2338 30.6628 25.995 31.9705 27.3001C30.6699 28.6031 29.1217 29.3643 27.2864 29.6127C27.1389 29.2341 26.9964 28.8656 26.8448 28.4769C26.7377 28.4769 26.6407 28.4769 26.5436 28.4769C21.9566 28.4769 17.3695 28.4779 12.7824 28.4749C12.5974 28.4749 12.4347 28.512 12.271 28.5981C11.7334 28.8796 11.1887 29.146 10.651 29.4264C10.4237 29.5446 10.1892 29.6047 9.93251 29.6017C9.38679 29.5957 8.84208 29.5977 8.29636 29.6017C8.17307 29.6027 8.07504 29.5747 7.98813 29.4805C6.78855 28.1835 5.81636 26.7372 5.09278 25.1297C5.07863 25.0986 5.07257 25.0646 5.05539 25.0085C5.13421 25.0005 5.20091 24.9884 5.2666 24.9884C6.6976 24.9874 8.12759 24.9894 9.55859 24.9864C9.7688 24.9864 9.96384 25.0325 10.1548 25.1166C10.8653 25.4281 11.5788 25.7336 12.2892 26.0461C12.4479 26.1162 12.6076 26.1533 12.7814 26.1483C13.0401 26.1413 13.2998 26.1473 13.5595 26.1453C13.6464 26.1443 13.7334 26.1363 13.8486 26.1302C13.8253 25.9129 13.8081 25.7206 13.7829 25.5293C13.6545 24.5578 13.414 23.6183 12.9966 22.7259C12.3296 21.3006 11.2867 20.2079 9.96889 19.3595C8.75113 18.5763 7.42018 18.0445 6.03061 17.6529C5.3616 17.4636 4.68248 17.3073 3.97607 17.128C3.97607 17.0649 3.96496 16.9788 3.97809 16.8957C4.26914 15.0217 4.86034 13.2499 5.81737 11.6033C5.84365 11.5572 5.877 11.5162 5.92146 11.4491C6.1923 11.5132 6.46921 11.5743 6.74409 11.6454C8.60762 12.1251 10.4277 12.7251 12.1376 13.6135C12.6268 13.8679 13.0926 14.1684 13.5595 14.4638C13.8698 14.6601 13.8617 14.6721 14.2073 14.4328C14.1396 14.3526 14.077 14.2705 14.0072 14.1944C13.3473 13.4773 12.5884 12.8713 11.8062 12.2944C10.456 11.2988 9.04218 10.4024 7.5748 9.58511C7.49799 9.54205 7.42321 9.49698 7.32619 9.44089C7.47879 9.26361 7.6132 9.09935 7.7567 8.9431C8.87442 7.73119 10.1387 6.69856 11.5858 5.89028C11.7607 5.79313 11.9032 5.78311 12.0861 5.86023C13.2149 6.33498 14.2265 6.99703 15.1856 7.7432C16.5691 8.8179 17.8121 10.0408 18.9955 11.3249C19.0198 11.3509 19.043 11.3779 19.0673 11.404C19.3502 11.7145 19.3886 11.7205 19.8121 11.5061ZM23.6736 22.5155C23.6766 21.4719 22.8428 20.6336 21.7969 20.6286C20.7307 20.6235 19.8858 21.4519 19.8828 22.5065C19.8798 23.5572 20.7347 24.4065 21.7878 24.3995C22.8358 24.3915 23.6705 23.5572 23.6736 22.5155Z" fill="#7CF9B2"/>
</svg>
