<svg width="431" height="142" viewBox="0 0 431 142" fill="none" xmlns="http://www.w3.org/2000/svg">
<path d="M0 142V0H68.2369C81.4658 0 92.8724 2.16381 102.457 6.49143C112.176 10.819 119.668 17.04 124.932 25.1543C130.197 33.1333 132.829 42.6 132.829 53.5543C132.829 64.5086 130.197 73.9752 124.932 81.9543C119.668 89.9333 112.176 96.1543 102.457 100.617C92.8724 104.945 81.4658 107.109 68.2369 107.109H26.5253L47.7861 86.62V142H0ZM47.7861 91.8943L26.5253 70.1886H65.1996C71.8141 70.1886 76.6737 68.701 79.7784 65.7257C83.0182 62.7505 84.638 58.6933 84.638 53.5543C84.638 48.4152 83.0182 44.3581 79.7784 41.3829C76.6737 38.4076 71.8141 36.92 65.1996 36.92H26.5253L47.7861 15.2143V91.8943Z" fill="#262626"/>
<path d="M148.501 142V0H218.358C234.151 0 248.055 2.90762 260.069 8.72286C272.083 14.4029 281.465 22.5171 288.214 33.0657C294.964 43.6143 298.339 56.1914 298.339 70.7971C298.339 85.5381 294.964 98.2505 288.214 108.934C281.465 119.483 272.083 127.665 260.069 133.48C248.055 139.16 234.151 142 218.358 142H148.501ZM196.287 104.674H216.333C223.082 104.674 228.954 103.39 233.949 100.82C239.078 98.2505 243.061 94.4638 245.895 89.46C248.73 84.3209 250.148 78.1 250.148 70.7971C250.148 63.6295 248.73 57.5438 245.895 52.54C243.061 47.5362 239.078 43.7495 233.949 41.18C228.954 38.6105 223.082 37.3257 216.333 37.3257H196.287V104.674Z" fill="#262626"/>
<path d="M360.333 60.4514H422.698V96.56H360.333V60.4514ZM363.573 142H315.787V0H431V36.1086H363.573V142Z" fill="#262626"/>
</svg>
